<svg width="64" height="40" viewBox="0 0 64 40" fill="none" xmlns="http://www.w3.org/2000/svg">
<path d="M64.0012 19.9323C56.32 20.6826 55.715 21.2922 54.9703 29.0315C54.2257 21.2922 53.6207 20.6826 45.9395 19.9323C53.6207 19.182 54.2257 18.5724 54.9703 10.833C55.715 18.5724 56.32 19.182 64.0012 19.9323Z" fill="#7A5588"/>
<path d="M6.30399 32H2.32438V8.40405H18.7007V11.9258H6.30399V19.1807H16.5524V22.7025H6.30399V32ZM24.4826 32H18.0377L18.2138 31.4013C19.9043 31.4013 20.9608 30.4856 21.3834 28.8656L25.8208 12.3132C25.8913 12.0315 25.9265 11.7497 25.9265 11.468C25.9265 10.3762 25.2574 9.70711 24.1304 9.70711L24.2713 9.1084H29.0257L35.9636 27.4569L40.0489 12.1724C40.1193 11.8906 40.1897 11.6089 40.1897 11.2919C40.1897 10.341 39.5206 9.70711 38.3232 9.70711L38.4641 9.1084H44.2046L43.9933 9.70711C42.655 9.70711 41.6337 10.3762 41.1758 12.1724L35.8579 32H34.4844L26.9126 12.3837L22.5456 28.8656C22.4399 29.1826 22.4047 29.4995 22.4047 29.7813C22.4047 30.873 23.1443 31.4013 24.6234 31.4013L24.4826 32Z" fill="#1E1F24"/>
</svg>
